<?xml version="1.0" encoding="utf-8"?>
<!-- Generator: Adobe Illustrator 16.0.0, SVG Export Plug-In . SVG Version: 6.00 Build 0)  -->
<!DOCTYPE svg PUBLIC "-//W3C//DTD SVG 1.1//EN" "http://www.w3.org/Graphics/SVG/1.1/DTD/svg11.dtd">
<svg version="1.1" id="图层_1" xmlns="http://www.w3.org/2000/svg" xmlns:xlink="http://www.w3.org/1999/xlink" x="0px" y="0px"
	 width="850.39px" height="850.39px" viewBox="0 0 850.39 850.39" enable-background="new 0 0 850.39 850.39" xml:space="preserve">
<g>
	<path fill="#535253" d="M456.01,848.229l-0.355-18.195c-2-100.9,36.137-195.721,107.377-266.994
		c69.373-69.313,161.627-107.48,259.773-107.48c2.414,0,4.834,0.027,7.242,0.076l18.205,0.355l-2.08,18.088
		c-10.854,94.324-53.941,183.389-121.324,250.777c-67.389,67.387-156.443,110.465-250.756,121.297L456.01,848.229z M810.693,488.887
		c-84.764,2.996-164.002,37.375-224.25,97.568c-60.389,60.422-94.631,139.451-97.547,224.225
		C654.834,783.689,783.666,654.869,810.693,488.887z"/>
	<path fill="#535253" d="M822.814,394.821c-98.162,0-190.406-38.162-259.744-107.453C491.801,216.1,453.654,121.266,455.654,20.326
		l0.355-18.2l18.088,2.08c94.313,10.854,183.361,53.948,250.75,121.339c67.383,67.391,110.471,156.447,121.324,250.761l2.08,18.089
		l-18.205,0.356C827.639,394.797,825.225,394.821,822.814,394.821z M488.896,39.682c2.916,84.81,37.17,163.855,97.58,224.27
		c60.219,60.18,139.443,94.551,224.217,97.545C783.666,195.545,654.84,66.718,488.896,39.682z"/>
	<path fill="#535253" d="M746.119,702.559l-13.123-12.621c-72.773-70.002-112.848-164.025-112.848-264.747
		c0-100.756,40.08-194.774,112.854-264.728l13.123-12.619l11.316,14.263c59.025,74.373,91.527,167.806,91.533,263.087
		c0.012,95.297-32.498,188.732-91.533,263.105L746.119,702.559z M742.82,197.652c-57.896,62.029-89.561,142.123-89.561,227.539
		c0,85.39,31.668,165.491,89.566,227.554C841.059,516.309,841.053,334.121,742.82,197.652z"/>
	<path fill="#535253" d="M425.21,230.233c-100.763,0-194.786-40.073-264.75-112.837l-12.619-13.123l14.263-11.32
		c74.381-59.024,167.827-91.53,263.128-91.53c95.293,0,188.719,32.506,263.071,91.533l14.26,11.321l-12.623,13.123
		C619.977,190.161,525.959,230.233,425.21,230.233z M197.668,107.59c62.031,57.874,142.13,89.531,227.542,89.531
		c85.399,0,165.491-31.654,227.528-89.533c-65.881-47.227-145.949-73.053-227.506-73.053
		C343.663,34.535,263.575,60.361,197.668,107.59z"/>
	<path fill="#535253" d="M27.693,394.797c-2.554-0.205-4.901-0.024-7.348-0.073l-18.197-0.361l2.078-18.084
		c10.841-94.297,53.929-183.343,121.328-250.737C192.945,58.154,281.996,15.063,376.298,4.207l18.092-2.08l0.355,18.205
		c1.973,100.889-36.173,195.72-107.404,267.026C217.992,356.643,125.783,394.797,27.693,394.797z M361.499,39.685
		C195.54,66.72,66.712,195.542,39.701,361.475c84.75-2.967,163.974-37.335,224.227-97.529
		C324.308,203.502,358.557,124.457,361.499,39.685z"/>
	<path fill="#535253" d="M394.391,848.229l-18.087-2.076c-94.306-10.832-183.356-53.91-250.75-121.297
		C58.154,657.461,15.066,568.396,4.226,474.078L2.148,455.99l18.203-0.355c2.417-0.049,4.824-0.076,7.241-0.076
		c98.169,0,190.417,38.184,259.743,107.514c71.239,71.23,109.385,166.039,107.412,266.955L394.391,848.229z M39.701,488.887
		C66.712,654.863,195.542,783.686,361.499,810.68c-2.934-84.791-37.187-163.809-97.577-224.197
		C203.705,526.268,124.484,491.879,39.701,488.887z"/>
	<path fill="#535253" d="M104.25,702.537l-11.318-14.26C33.916,613.91,1.415,520.48,1.415,425.19
		c0-95.287,32.5-188.719,91.517-263.084l11.315-14.26l13.126,12.614c72.775,69.935,112.855,163.952,112.855,264.73
		c0,100.755-40.078,194.771-112.853,264.729L104.25,702.537z M107.556,197.652c-98.218,136.448-98.218,318.629,0,455.077
		c57.895-62.031,89.561-142.123,89.561-227.538C197.116,339.756,165.451,259.662,107.556,197.652z"/>
	<path fill="#535253" d="M425.201,848.967c-95.296,0-188.732-32.504-263.097-91.518l-14.26-11.313l12.614-13.129
		c69.932-72.762,163.958-112.83,264.753-112.83c100.78,0,194.797,40.068,264.735,112.83l12.617,13.129l-14.26,11.313
		C613.934,816.463,520.5,848.967,425.201,848.967z M197.666,742.813c65.893,47.221,145.974,73.041,227.535,73.041
		c81.567,0,161.647-25.82,227.538-73.041c-62.01-57.865-142.107-89.523-227.528-89.523
		C339.772,653.289,259.673,684.947,197.666,742.813z"/>
</g>
<rect fill="none" width="850.391" height="850.39"/>
</svg>
