<?xml version="1.0" encoding="utf-8"?>
<!-- Generator: Adobe Illustrator 16.0.0, SVG Export Plug-In . SVG Version: 6.00 Build 0)  -->
<!DOCTYPE svg PUBLIC "-//W3C//DTD SVG 1.1//EN" "http://www.w3.org/Graphics/SVG/1.1/DTD/svg11.dtd">
<svg version="1.1" id="图层_1" xmlns="http://www.w3.org/2000/svg" xmlns:xlink="http://www.w3.org/1999/xlink" x="0px" y="0px"
	 width="850.394px" height="850.394px" viewBox="57.779 50.586 850.394 850.394"
	 enable-background="new 57.779 50.586 850.394 850.394" xml:space="preserve">
<g>
	<path fill="none" stroke="#535353" stroke-width="50" stroke-miterlimit="10" d="M632.707,78.475"/>
	<path fill="#535353" d="M244.155,421.891c-101.547,0-184.163-82.616-184.163-184.164c0-101.549,82.615-184.165,184.163-184.165
		c101.55,0,184.167,82.616,184.168,184.165C428.323,339.275,345.706,421.891,244.155,421.891z M244.155,98.049
		c-77.018,0-139.677,62.659-139.677,139.679c0,77.019,62.659,139.678,139.677,139.678c77.021,0,139.683-62.659,139.683-139.678
		C383.836,160.708,321.175,98.049,244.155,98.049z"/>
	<path fill="#535353" d="M723.386,896.27c-101.55,0-184.167-82.615-184.167-184.163c0-101.549,82.617-184.164,184.167-184.164
		c101.549,0,184.164,82.615,184.164,184.164C907.551,813.655,824.935,896.27,723.386,896.27z M723.386,572.428
		c-77.021,0-139.682,62.659-139.682,139.679c0,77.019,62.66,139.678,139.682,139.678c77.018,0,139.678-62.659,139.678-139.678
		C863.064,635.087,800.404,572.428,723.386,572.428z"/>
	<path fill="#535353" d="M710.606,447.42c-13.946,0-27.182-5.461-37.264-15.377l-0.133-0.131L529.176,287.878
		c-20.601-20.626-20.601-54.173-0.009-74.789L673.21,69.046c10-9.987,23.278-15.483,37.399-15.483s27.398,5.496,37.39,15.474
		L892.041,213.08c9.857,9.859,15.508,23.49,15.508,37.398c0,13.912-5.652,27.544-15.507,37.4L748.065,431.855
		C738.154,441.892,724.854,447.42,710.606,447.42z M704.58,400.37c1.681,1.63,3.873,2.564,6.026,2.564
		c1.31,0,3.806-0.305,5.814-2.347l0.131-0.132l144.032-144.033c1.553-1.553,2.479-3.775,2.479-5.945c0-2.167-0.928-4.39-2.481-5.944
		L716.552,100.503c-2.137-2.134-4.642-2.454-5.943-2.454c-1.301,0-3.807,0.32-5.953,2.463L560.633,244.536
		c-3.269,3.272-3.269,8.614,0.01,11.896L704.58,400.37z"/>
	<path fill="#535353" d="M370.864,881.639h-0.093l-225.599-1.093c-30.968-0.168-56.045-25.489-55.914-56.446l1.092-225.612
		c0.169-30.837,25.381-55.913,56.204-55.913h0.242l225.612,1.094c14.808,0.073,29.265,6.135,39.663,16.634
		c10.398,10.502,16.32,25.016,16.25,39.822l-1.092,225.507c0.028,14.984-5.877,29.101-16.637,39.759
		c-10.526,10.424-24.602,16.196-39.635,16.249H370.864z M146.594,587.06c-6.466,0-11.724,5.229-11.759,11.657l-1.092,225.585
		c-0.028,6.442,5.201,11.723,11.655,11.758l225.466,1.093c3.218-0.028,6.285-1.254,8.423-3.371c1.297-1.285,3.471-4.043,3.457-8.087
		v-0.187l1.093-225.598c0.014-3.052-1.248-6.157-3.375-8.307c-2.125-2.144-5.217-3.435-8.27-3.449L146.594,587.06z"/>
</g>
</svg>
