<?xml version="1.0" encoding="utf-8"?>
<!-- Generator: Adobe Illustrator 16.0.0, SVG Export Plug-In . SVG Version: 6.00 Build 0)  -->
<!DOCTYPE svg PUBLIC "-//W3C//DTD SVG 1.1//EN" "http://www.w3.org/Graphics/SVG/1.1/DTD/svg11.dtd">
<svg version="1.1" id="图层_1" xmlns="http://www.w3.org/2000/svg" xmlns:xlink="http://www.w3.org/1999/xlink" x="0px" y="0px"
	 width="850.391px" height="850.39px" viewBox="0 0 850.391 850.39" enable-background="new 0 0 850.391 850.39"
	 xml:space="preserve">
<g>
	<path fill="none" d="M658.33,327.885c-27.689-15.776-53.766-35.445-77.4-59.063c-23.641-23.642-43.326-49.729-59.111-77.434
		c-30.742,8.424-63.107,12.93-96.537,12.93c-33.438,0-65.819-4.51-96.58-12.943c-15.782,27.702-35.46,53.791-59.092,77.446
		c-23.641,23.62-49.723,43.29-77.417,59.065c8.431,30.755,12.94,63.13,12.94,96.556c0,33.441-4.508,65.814-12.938,96.566
		c27.697,15.785,53.779,35.469,77.417,59.107c23.634,23.631,43.313,49.713,59.096,77.412c30.758-8.428,63.137-12.936,96.574-12.936
		c33.425,0,65.789,4.502,96.529,12.922c15.779-27.703,35.459-53.791,59.09-77.432c23.645-23.625,49.729-43.301,77.426-59.082
		c-8.43-30.75-12.939-63.121-12.939-96.561C645.387,391.014,649.897,358.64,658.33,327.885z"/>
	<path fill="#E75297" d="M825.063,565.269c-0.563,1.6-1.117,3.203-1.699,4.797C823.946,568.474,824.5,566.869,825.063,565.269z"/>
	<path fill="#E75297" d="M844.424,487.107c-0.318,2.148-0.645,4.297-0.998,6.441C843.778,491.408,844.106,489.259,844.424,487.107z"
		/>
	<path fill="#E75297" d="M843.143,495.21c-0.408,2.422-0.828,4.842-1.277,7.258C842.313,500.056,842.735,497.636,843.143,495.21z"/>
	<path fill="#E75297" d="M841.723,503.201c-3.734,19.846-8.893,39.479-15.48,58.73C832.756,542.929,837.942,523.314,841.723,503.201
		z"/>
	<path fill="#E75297" d="M846.26,473.351c-0.008,0-0.018,0-0.025,0c-0.078,0.67-0.146,1.34-0.227,2.008
		C846.088,474.689,846.184,474.023,846.26,473.351z"/>
	<path fill="#E75297" d="M587.313,816.144c-0.779,0.322-1.564,0.625-2.344,0.941C585.748,816.769,586.535,816.466,587.313,816.144z"
		/>
	<path fill="#E75297" d="M579.344,819.345c-27.158,10.58-55.189,18.248-83.609,23.016
		C524.705,837.515,552.684,829.751,579.344,819.345z"/>
	<path fill="#E75297" d="M485.321,843.974c-1.801,0.258-3.605,0.494-5.408,0.727C481.717,844.468,483.522,844.23,485.321,843.974z"
		/>
	<path fill="#E75297" d="M474.19,845.421c0.604-0.07,1.203-0.156,1.807-0.229c-0.602,0.072-1.205,0.135-1.807,0.205
		C474.19,845.406,474.19,845.414,474.19,845.421z"/>
	<path fill="#E75297" d="M494.487,842.572c-2.189,0.361-4.383,0.695-6.578,1.021C490.108,843.267,492.301,842.931,494.487,842.572z"
		/>
	<path fill="#E75297" d="M845.565,478.878c-0.242,1.879-0.488,3.758-0.756,5.633C845.074,482.638,845.323,480.759,845.565,478.878z"
		/>
	<path fill="#E75297" d="M759.42,685.125c0.164-0.211,0.328-0.422,0.492-0.633C759.748,684.703,759.584,684.914,759.42,685.125z"/>
	<path fill="#E75297" d="M658.326,521.001c-27.697,15.781-53.781,35.457-77.426,59.082c-23.631,23.641-43.311,49.729-59.09,77.432
		c64.346,17.623,121.576,52.432,166.525,99.184c25.633-20.322,48.855-43.545,69.178-69.182
		C710.787,642.56,675.967,585.337,658.326,521.001z"/>
	<path fill="#FCCF00" d="M521.819,191.388c15.785,27.705,35.471,53.792,59.111,77.434c23.635,23.618,49.711,43.287,77.4,59.063
		c17.641-64.334,52.461-121.577,99.184-166.503c-20.32-25.633-43.541-48.855-69.17-69.178
		C643.395,138.938,586.164,173.755,521.819,191.388z"/>
	<path fill="#FCCF00" d="M759.362,163.7c0.217,0.279,0.432,0.559,0.648,0.837C759.793,164.259,759.578,163.979,759.362,163.7z"/>
	<path fill="#FCCF00" d="M844.733,363.862c0.332,2.315,0.639,4.634,0.934,6.954C845.371,368.493,845.065,366.174,844.733,363.862z"
		/>
	<path fill="#FCCF00" d="M685.061,89.609c0.344,0.268,0.691,0.534,1.035,0.804C685.752,90.144,685.406,89.877,685.061,89.609z"/>
	<path fill="#FCCF00" d="M594.328,35.73c0.365,0.158,0.73,0.308,1.094,0.467C595.061,36.038,594.692,35.889,594.328,35.73z"/>
	<path fill="#FCCF00" d="M678.723,84.77c0.012,0.009,0.023,0.018,0.035,0.027C678.746,84.788,678.735,84.779,678.723,84.77z"/>
	<path fill="#FCCF00" d="M846.26,375.536c-0.096-0.833-0.213-1.659-0.314-2.49c0.102,0.829,0.188,1.661,0.283,2.49
		C846.239,375.536,846.25,375.536,846.26,375.536z"/>
	<path fill="#F29600" d="M845.666,370.816c0.094,0.743,0.189,1.485,0.279,2.229C845.856,372.302,845.76,371.56,845.666,370.816z"/>
	<path fill="#F29600" d="M844.58,362.827c0.049,0.345,0.104,0.689,0.152,1.035C844.684,363.517,844.629,363.172,844.58,362.827z"/>
	<path fill="#F29600" d="M757.541,161.355c-0.01,0.009-0.018,0.018-0.027,0.026c0.613,0.774,1.238,1.54,1.848,2.318
		C758.75,162.92,758.156,162.132,757.541,161.355z"/>
	<path fill="#F29600" d="M757.541,687.544c0.637-0.801,1.248-1.615,1.879-2.42c-0.629,0.805-1.273,1.594-1.906,2.393
		C757.522,687.527,757.531,687.537,757.541,687.544z"/>
	<path fill="#F29600" d="M826.242,561.931c-0.383,1.117-0.787,2.225-1.18,3.338C825.455,564.156,825.862,563.046,826.242,561.931z"
		/>
	<path fill="#F29600" d="M843.426,493.548c-0.092,0.555-0.189,1.107-0.283,1.662C843.237,494.658,843.334,494.103,843.426,493.548z"
		/>
	<path fill="#F29600" d="M823.364,570.066c-15.213,41.584-36.752,80.113-63.451,114.426
		C787.428,649.171,808.59,610.523,823.364,570.066z"/>
	<path fill="#F29600" d="M658.33,327.885c-8.434,30.755-12.943,63.129-12.943,96.556c0,33.439,4.51,65.811,12.939,96.561
		c57.986-33.037,123.076-48.918,187.908-47.65c3.754-32.49,3.752-65.326-0.006-97.815
		C781.397,376.796,716.307,360.916,658.33,327.885z"/>
	<path fill="#F29600" d="M841.865,502.468c-0.047,0.244-0.096,0.486-0.143,0.732C841.77,502.957,841.819,502.712,841.865,502.468z"
		/>
	<path fill="#F29600" d="M844.809,484.511c-0.123,0.867-0.256,1.73-0.385,2.596C844.553,486.242,844.686,485.378,844.809,484.511z"
		/>
	<path fill="#F29600" d="M846.008,475.359c-0.143,1.176-0.293,2.348-0.443,3.52C845.715,477.707,845.865,476.533,846.008,475.359z"
		/>
	<path fill="#E75297" d="M823.364,570.066c0.582-1.594,1.137-3.197,1.699-4.797c0.393-1.113,0.797-2.221,1.18-3.338
		c6.588-19.252,11.746-38.885,15.48-58.73c0.047-0.246,0.096-0.488,0.143-0.732c0.449-2.416,0.869-4.836,1.277-7.258
		c0.094-0.555,0.191-1.107,0.283-1.662c0.354-2.145,0.68-4.293,0.998-6.441c0.129-0.865,0.262-1.729,0.385-2.596
		c0.268-1.875,0.514-3.754,0.756-5.633c0.15-1.172,0.301-2.344,0.443-3.52c0.08-0.668,0.148-1.338,0.227-2.008
		c-64.832-1.268-129.922,14.613-187.908,47.65c17.641,64.336,52.461,121.559,99.188,166.516c0.633-0.799,1.277-1.588,1.906-2.393
		c0.164-0.211,0.328-0.422,0.492-0.633C786.612,650.179,808.151,611.65,823.364,570.066z"/>
	<path fill="#DB3000" d="M823.364,570.066c0.582-1.594,1.137-3.197,1.699-4.797c0.393-1.113,0.797-2.221,1.18-3.338
		c6.588-19.252,11.746-38.885,15.48-58.73c0.047-0.246,0.096-0.488,0.143-0.732c0.449-2.416,0.869-4.836,1.277-7.258
		c0.094-0.555,0.191-1.107,0.283-1.662c0.354-2.145,0.68-4.293,0.998-6.441c0.129-0.865,0.262-1.729,0.385-2.596
		c0.268-1.875,0.514-3.754,0.756-5.633c0.15-1.172,0.301-2.344,0.443-3.52c0.08-0.668,0.148-1.338,0.227-2.008
		c-64.832-1.268-129.922,14.613-187.908,47.65c17.641,64.336,52.461,121.559,99.188,166.516c0.633-0.799,1.277-1.588,1.906-2.393
		c0.164-0.211,0.328-0.422,0.492-0.633C786.612,650.179,808.151,611.65,823.364,570.066z"/>
	<path fill="#EF7A00" d="M845.946,373.045c-0.09-0.744-0.186-1.486-0.279-2.229c-0.295-2.32-0.602-4.639-0.934-6.954
		c-0.049-0.346-0.104-0.69-0.152-1.035c-4.691-32.167-12.973-63.167-24.459-92.562c-0.225-0.575-0.463-1.143-0.689-1.716
		c-0.824-2.088-1.656-4.175-2.516-6.253c-14.234-34.41-33.217-67.32-56.906-97.758c-0.217-0.279-0.432-0.559-0.648-0.837
		c-0.609-0.779-1.234-1.544-1.848-2.318c-46.723,44.926-81.543,102.169-99.184,166.503c57.977,33.031,123.066,48.912,187.898,47.651
		C846.133,374.706,846.047,373.875,845.946,373.045z"/>
	<path fill="#AACC03" d="M587.557,32.844c2.27,0.941,4.523,1.908,6.771,2.887C592.076,34.751,589.823,33.781,587.557,32.844z"/>
	<path fill="#AACC03" d="M328.702,191.375c30.76,8.433,63.141,12.943,96.58,12.943c33.429,0,65.794-4.506,96.537-12.93
		c-33.031-57.971-48.902-123.06-47.631-187.898c-32.496-3.754-65.34-3.751-97.837,0.008
		C377.607,68.336,361.729,133.403,328.702,191.375z"/>
	<path fill="#008202" d="M165.824,89.347c1.888-1.464,3.784-2.918,5.696-4.35C169.612,86.427,167.715,87.88,165.824,89.347z"/>
	<path fill="#AACC03" d="M595.422,36.197c29.705,13.039,57.627,29.384,83.301,48.572C652.5,65.151,624.535,48.95,595.422,36.197z"/>
	<path fill="#008202" d="M178.905,79.589c18.923-13.542,39.007-25.565,60.074-35.893C218.217,53.856,198.119,65.83,178.905,79.589z"
		/>
	<path fill="#AACC03" d="M688.369,92.178c-0.754-0.598-1.518-1.173-2.273-1.765c0.754,0.59,1.496,1.195,2.248,1.791
		C688.352,92.195,688.36,92.187,688.369,92.178z"/>
	<path fill="#AACC03" d="M678.758,84.796c2.117,1.583,4.215,3.191,6.303,4.813C682.971,87.983,680.871,86.377,678.758,84.796z"/>
	<path fill="#008202" d="M172.366,84.37c2.144-1.597,4.3-3.18,6.476-4.737C176.672,81.188,174.514,82.769,172.366,84.37z"/>
	<path fill="#AACC03" d="M162.177,92.178c0.008,0.008,0.016,0.016,0.023,0.024c0.686-0.543,1.364-1.096,2.053-1.635
		C163.563,91.107,162.865,91.632,162.177,92.178z"/>
	<path fill="#A8A600" d="M686.096,90.413c-0.344-0.27-0.691-0.536-1.035-0.804c-2.088-1.622-4.186-3.23-6.303-4.813
		c-0.012-0.009-0.023-0.018-0.035-0.027c-25.674-19.188-53.596-35.534-83.301-48.572c-0.363-0.159-0.729-0.309-1.094-0.467
		c-2.248-0.979-4.502-1.946-6.771-2.887C551.959,18.073,513.912,8.01,474.19,3.438c-0.002,0.017,0,0.034-0.002,0.051
		c-1.271,64.838,14.6,129.927,47.631,187.898c64.346-17.632,121.576-52.45,166.525-99.184
		C687.592,91.608,686.85,91.003,686.096,90.413z"/>
	<path fill="#00A3B4" d="M164.253,90.566c0.522-0.409,1.047-0.813,1.571-1.219C165.301,89.753,164.775,90.158,164.253,90.566z"/>
	<path fill="#00A3B4" d="M4.921,370.41c0.271-2.119,0.549-4.237,0.852-6.352C5.472,366.17,5.192,368.289,4.921,370.41z"/>
	<path fill="#00A3B4" d="M7.222,354.665c4.759-28.646,12.469-56.896,23.13-84.266C19.867,297.261,12.06,325.46,7.222,354.665z"/>
	<path fill="#00A3B4" d="M6.012,362.443c0.368-2.5,0.749-4.998,1.162-7.492C6.763,357.44,6.379,359.938,6.012,362.443z"/>
	<path fill="#00A3B4" d="M4.28,375.508c0.009,0,0.019,0,0.028,0c0.084-0.733,0.16-1.468,0.249-2.201
		C4.469,374.042,4.365,374.772,4.28,375.508z"/>
	<path fill="#00A3B4" d="M33.301,263.06c0.083-0.204,0.162-0.409,0.246-0.612C33.463,262.65,33.384,262.856,33.301,263.06z"/>
	<path fill="#008202" d="M171.521,84.997c0.281-0.21,0.564-0.417,0.846-0.627C172.085,84.58,171.802,84.787,171.521,84.997z"/>
	<path fill="#00A3B4" d="M192.193,327.887c27.695-15.775,53.777-35.445,77.417-59.065c23.632-23.655,43.311-49.745,59.092-77.446
		c-64.334-17.637-121.57-52.45-166.502-99.173c-25.637,20.326-48.864,43.553-69.189,69.19
		C139.746,206.315,174.558,263.557,192.193,327.887z"/>
	<path fill="#008202" d="M178.842,79.633c0.021-0.015,0.042-0.029,0.063-0.044C178.884,79.604,178.863,79.618,178.842,79.633z"/>
	<g>
		<g>
			<path fill="#008202" d="M376.35,3.498c-0.001-0.02,0-0.04-0.001-0.059c-45.837,5.276-89.447,17.866-129.638,36.566
				c-1.39,0.647-2.767,1.317-4.149,1.979c-1.195,0.571-2.394,1.13-3.584,1.713c-21.067,10.328-41.151,22.351-60.074,35.893
				c-0.021,0.015-0.042,0.029-0.063,0.044c-2.175,1.557-4.332,3.14-6.476,4.737c-0.282,0.21-0.564,0.417-0.846,0.627
				c-1.913,1.432-3.808,2.886-5.696,4.35c-0.524,0.406-1.049,0.81-1.571,1.219c-0.689,0.54-1.367,1.092-2.053,1.635
				c44.932,46.723,102.167,81.537,166.502,99.173C361.729,133.403,377.607,68.336,376.35,3.498z"/>
		</g>
	</g>
	<path fill="#7D4697" d="M91.029,685.015c-0.092-0.117-0.182-0.236-0.273-0.354C90.847,684.779,90.937,684.898,91.029,685.015z"/>
	<path fill="#7D4697" d="M376.349,845.421c0-0.008,0-0.016,0-0.023c-0.627-0.074-1.254-0.139-1.881-0.215
		C375.096,845.259,375.72,845.349,376.349,845.421z"/>
	<path fill="#7D4697" d="M30.333,578.433c-0.999-2.564-1.972-5.139-2.919-7.721C28.365,573.298,29.334,575.873,30.333,578.433z"/>
	<path fill="#7D4697" d="M27.289,570.382c-9.021-24.641-15.67-49.949-19.964-75.576C11.683,520.88,18.403,546.154,27.289,570.382z"
		/>
	<path fill="#7D4697" d="M266.583,817.49c-1.125-0.453-2.255-0.895-3.377-1.357C264.325,816.595,265.458,817.037,266.583,817.49z"/>
	<path fill="#7D4697" d="M370.76,844.718c-1.873-0.242-3.745-0.488-5.615-0.754C367.011,844.23,368.885,844.476,370.76,844.718z"/>
	<path fill="#7D4697" d="M7.136,493.695c-0.372-2.256-0.715-4.516-1.051-6.777C6.42,489.183,6.766,491.443,7.136,493.695z"/>
	<path fill="#7D4697" d="M354.996,842.392c-28.494-4.766-56.597-12.449-83.825-23.059
		C297.898,829.767,325.95,837.548,354.996,842.392z"/>
	<path fill="#7D4697" d="M362.793,843.617c-2.272-0.338-4.543-0.682-6.811-1.057C358.246,842.933,360.516,843.281,362.793,843.617z"
		/>
	<path fill="#7D4697" d="M4.28,473.351c0.076,0.66,0.17,1.314,0.249,1.975c-0.079-0.658-0.147-1.316-0.224-1.975
		C4.296,473.351,4.288,473.351,4.28,473.351z"/>
	<path fill="#7D4697" d="M5.74,484.58c-0.271-1.906-0.521-3.813-0.767-5.721C5.218,480.769,5.469,482.677,5.74,484.58z"/>
	<path fill="#7D4697" d="M328.708,657.529c-15.783-27.699-35.462-53.781-59.096-77.412c-23.638-23.639-49.72-43.322-77.417-59.107
		c-17.634,64.33-52.449,121.545-99.189,166.486c20.328,25.645,43.559,48.875,69.202,69.203
		C207.14,709.96,264.375,675.156,328.708,657.529z"/>
	<path fill="#00AEEB" d="M192.195,521.009c8.429-30.752,12.938-63.125,12.938-96.566c0-33.426-4.509-65.801-12.94-96.556
		c-57.981,33.027-123.069,48.901-187.885,47.622c-3.758,32.499-3.759,65.345-0.003,97.843
		C69.12,472.083,134.215,487.964,192.195,521.009z"/>
	<path fill="#00AEEB" d="M30.352,270.399c0.96-2.458,1.944-4.903,2.948-7.339C32.297,265.5,31.309,267.944,30.352,270.399z"/>
	<path fill="#00AEEB" d="M7.174,354.951c0.016-0.096,0.032-0.191,0.048-0.286C7.206,354.76,7.19,354.855,7.174,354.951z"/>
	<path fill="#00AEEB" d="M92.976,161.358c-24.888,31.362-44.695,65.427-59.43,101.089C48.677,225.9,68.79,191.943,93.011,161.392
		C92.999,161.381,92.988,161.37,92.976,161.358z"/>
	<path fill="#00AEEB" d="M5.773,364.058c0.077-0.54,0.16-1.077,0.239-1.615C5.933,362.981,5.85,363.52,5.773,364.058z"/>
	<path fill="#00AEEB" d="M4.973,478.859c-0.151-1.178-0.304-2.354-0.445-3.533C4.67,476.503,4.822,477.681,4.973,478.859z"/>
	<path fill="#00AEEB" d="M7.325,494.806c-0.062-0.371-0.128-0.74-0.189-1.111C7.198,494.066,7.263,494.435,7.325,494.806z"/>
	<path fill="#00AEEB" d="M90.756,684.662c-24.961-32.043-45.419-67.77-60.423-106.229C44.93,615.919,65.084,651.742,90.756,684.662z
		"/>
	<path fill="#00AEEB" d="M6.086,486.917c-0.115-0.779-0.235-1.557-0.346-2.338C5.851,485.359,5.97,486.138,6.086,486.917z"/>
	<path fill="#00AEEB" d="M27.414,570.712c-0.041-0.109-0.083-0.219-0.125-0.33C27.33,570.494,27.373,570.603,27.414,570.712z"/>
	<path fill="#00AEEB" d="M92.976,687.523c0.01-0.01,0.02-0.018,0.029-0.027c-0.657-0.828-1.326-1.648-1.977-2.48
		C91.681,685.849,92.317,686.693,92.976,687.523z"/>
	<path fill="#00AEEB" d="M4.557,373.307c0.116-0.967,0.242-1.931,0.364-2.897C4.798,371.376,4.674,372.341,4.557,373.307z"/>
	<path fill="#00A3B4" d="M192.193,327.887c-17.634-64.33-52.447-121.571-99.182-166.495C68.79,191.943,48.677,225.9,33.547,262.447
		c-0.084,0.204-0.163,0.409-0.246,0.612c-1.004,2.436-1.988,4.881-2.948,7.339c-10.661,27.369-18.371,55.62-23.13,84.266
		c-0.016,0.095-0.033,0.19-0.048,0.286c-0.413,2.494-0.794,4.992-1.162,7.492c-0.079,0.539-0.162,1.076-0.239,1.615
		c-0.303,2.115-0.58,4.233-0.852,6.352c-0.123,0.966-0.248,1.93-0.364,2.897c-0.089,0.733-0.165,1.468-0.249,2.201
		C69.124,376.788,134.212,360.914,192.193,327.887z"/>
	<path fill="#006FA6" d="M192.193,327.887c-17.634-64.33-52.447-121.571-99.182-166.495C68.79,191.943,48.677,225.9,33.547,262.447
		c-0.084,0.204-0.163,0.409-0.246,0.612c-1.004,2.436-1.988,4.881-2.948,7.339c-10.661,27.369-18.371,55.62-23.13,84.266
		c-0.016,0.095-0.033,0.19-0.048,0.286c-0.413,2.494-0.794,4.992-1.162,7.492c-0.079,0.539-0.162,1.076-0.239,1.615
		c-0.303,2.115-0.58,4.233-0.852,6.352c-0.123,0.966-0.248,1.93-0.364,2.897c-0.089,0.733-0.165,1.468-0.249,2.201
		C69.124,376.788,134.212,360.914,192.193,327.887z"/>
	<path fill="#7D4697" d="M192.195,521.009c-57.98-33.045-123.075-48.926-187.891-47.658c0.076,0.658,0.145,1.316,0.224,1.975
		c0.141,1.18,0.294,2.355,0.445,3.533c0.246,1.908,0.495,3.814,0.767,5.721c0.111,0.781,0.231,1.559,0.346,2.338
		c0.335,2.262,0.679,4.521,1.051,6.777c0.061,0.371,0.127,0.74,0.189,1.111c4.293,25.627,10.943,50.936,19.964,75.576
		c0.041,0.111,0.084,0.221,0.125,0.33c0.947,2.582,1.92,5.156,2.919,7.721c15.004,38.459,35.461,74.186,60.423,106.229
		c0.091,0.117,0.182,0.236,0.273,0.354c0.65,0.832,1.319,1.652,1.977,2.48C139.746,642.554,174.561,585.339,192.195,521.009z"/>
	<path fill="#00308B" d="M192.195,521.009c-57.98-33.045-123.075-48.926-187.891-47.658c0.076,0.658,0.145,1.316,0.224,1.975
		c0.141,1.18,0.294,2.355,0.445,3.533c0.246,1.908,0.495,3.814,0.767,5.721c0.111,0.781,0.231,1.559,0.346,2.338
		c0.335,2.262,0.679,4.521,1.051,6.777c0.061,0.371,0.127,0.74,0.189,1.111c4.293,25.627,10.943,50.936,19.964,75.576
		c0.041,0.111,0.084,0.221,0.125,0.33c0.947,2.582,1.92,5.156,2.919,7.721c15.004,38.459,35.461,74.186,60.423,106.229
		c0.091,0.117,0.182,0.236,0.273,0.354c0.65,0.832,1.319,1.652,1.977,2.48C139.746,642.554,174.561,585.339,192.195,521.009z"/>
	<path fill="#D480B1" d="M495.735,842.361c-0.416,0.068-0.83,0.143-1.248,0.211C494.903,842.503,495.319,842.431,495.735,842.361z"
		/>
	<path fill="#D480B1" d="M688.369,756.73c-0.012-0.01-0.021-0.021-0.033-0.031c-30.541,24.213-64.486,44.318-101.023,59.445
		C622.963,801.412,657.018,781.609,688.369,756.73z"/>
	<path fill="#D480B1" d="M487.908,843.593c-0.863,0.127-1.723,0.26-2.588,0.381C486.184,843.853,487.045,843.72,487.908,843.593z"/>
	<path fill="#D480B1" d="M584.969,817.085c-1.871,0.762-3.74,1.523-5.625,2.26C581.225,818.611,583.096,817.847,584.969,817.085z"/>
	<path fill="#D480B1" d="M162.177,756.73c31.343,24.873,65.387,44.67,101.028,59.402c-36.525-15.125-70.463-35.227-100.998-59.434
		C162.198,756.71,162.187,756.72,162.177,756.73z"/>
	<path fill="#D480B1" d="M374.469,845.183c-1.238-0.146-2.473-0.307-3.709-0.465C371.996,844.876,373.231,845.035,374.469,845.183z"
		/>
	<path fill="#D480B1" d="M365.144,843.964c-0.785-0.111-1.568-0.232-2.352-0.348C363.576,843.732,364.359,843.853,365.144,843.964z"
		/>
	<path fill="#D480B1" d="M355.982,842.56c-0.329-0.053-0.656-0.111-0.986-0.168C355.325,842.449,355.654,842.505,355.982,842.56z"/>
	<path fill="#D480B1" d="M271.171,819.333c-1.537-0.6-3.061-1.227-4.588-1.844C268.112,818.107,269.636,818.736,271.171,819.333z"/>
	<path fill="#D480B1" d="M521.811,657.515c-30.74-8.42-63.104-12.922-96.529-12.922c-33.437,0-65.815,4.508-96.574,12.936
		c33.029,57.967,48.905,123.055,47.641,187.869c32.498,3.756,65.342,3.756,97.84,0C472.91,780.583,488.783,715.494,521.811,657.515z
		"/>
	<path fill="#D480B1" d="M479.912,844.701c-1.305,0.168-2.607,0.336-3.916,0.492C477.303,845.037,478.608,844.869,479.912,844.701z"
		/>
	<path fill="#E75297" d="M521.811,657.515c-33.027,57.979-48.9,123.068-47.621,187.883c0.602-0.07,1.205-0.133,1.807-0.205
		c1.309-0.156,2.611-0.324,3.916-0.492c1.803-0.232,3.607-0.469,5.408-0.727c0.865-0.121,1.725-0.254,2.588-0.381
		c2.195-0.326,4.389-0.66,6.578-1.021c0.418-0.068,0.832-0.143,1.248-0.211c28.42-4.768,56.451-12.436,83.609-23.016
		c1.885-0.736,3.754-1.498,5.625-2.26c0.779-0.316,1.564-0.619,2.344-0.941c36.537-15.127,70.482-35.232,101.023-59.445
		C643.387,709.947,586.156,675.138,521.811,657.515z"/>
	<path fill="#C02969" d="M521.811,657.515c-33.027,57.979-48.9,123.068-47.621,187.883c0.602-0.07,1.205-0.133,1.807-0.205
		c1.309-0.156,2.611-0.324,3.916-0.492c1.803-0.232,3.607-0.469,5.408-0.727c0.865-0.121,1.725-0.254,2.588-0.381
		c2.195-0.326,4.389-0.66,6.578-1.021c0.418-0.068,0.832-0.143,1.248-0.211c28.42-4.768,56.451-12.436,83.609-23.016
		c1.885-0.736,3.754-1.498,5.625-2.26c0.779-0.316,1.564-0.619,2.344-0.941c36.537-15.127,70.482-35.232,101.023-59.445
		C643.387,709.947,586.156,675.138,521.811,657.515z"/>
	<path fill="#7D4697" d="M328.708,657.529c-64.333,17.627-121.568,52.432-166.501,99.17c30.535,24.207,64.473,44.309,100.998,59.434
		c1.123,0.463,2.252,0.904,3.377,1.357c1.528,0.617,3.052,1.244,4.588,1.844c27.228,10.609,55.331,18.293,83.825,23.059
		c0.33,0.057,0.657,0.115,0.986,0.168c2.268,0.375,4.538,0.719,6.811,1.057c0.783,0.115,1.566,0.236,2.352,0.348
		c1.87,0.266,3.742,0.512,5.615,0.754c1.236,0.158,2.471,0.318,3.709,0.465c0.627,0.076,1.254,0.141,1.881,0.215
		C377.613,780.583,361.737,715.496,328.708,657.529z"/>
	<path fill="#682369" d="M328.708,657.529c-64.333,17.627-121.568,52.432-166.501,99.17c30.535,24.207,64.473,44.309,100.998,59.434
		c1.123,0.463,2.252,0.904,3.377,1.357c1.528,0.617,3.052,1.244,4.588,1.844c27.228,10.609,55.331,18.293,83.825,23.059
		c0.33,0.057,0.657,0.115,0.986,0.168c2.268,0.375,4.538,0.719,6.811,1.057c0.783,0.115,1.566,0.236,2.352,0.348
		c1.87,0.266,3.742,0.512,5.615,0.754c1.236,0.158,2.471,0.318,3.709,0.465c0.627,0.076,1.254,0.141,1.881,0.215
		C377.613,780.583,361.737,715.496,328.708,657.529z"/>
</g>
</svg>
