<?xml version="1.0" encoding="utf-8"?>
<!-- Generator: Adobe Illustrator 16.0.0, SVG Export Plug-In . SVG Version: 6.00 Build 0)  -->
<!DOCTYPE svg PUBLIC "-//W3C//DTD SVG 1.1//EN" "http://www.w3.org/Graphics/SVG/1.1/DTD/svg11.dtd">
<svg version="1.1" id="图层_1" xmlns="http://www.w3.org/2000/svg" xmlns:xlink="http://www.w3.org/1999/xlink" x="0px" y="0px"
	 width="850.39px" height="850.39px" viewBox="0 0 850.39 850.39" enable-background="new 0 0 850.39 850.39" xml:space="preserve">
<path fill="#535353" stroke="#535353" stroke-miterlimit="10" d="M739.238,46.96c9.146,0,16.109,0.184,22.557,1.1
	c26.905,3.816,42.982,29.379,42.982,51.889v653.14c-0.181,12.535-4.688,23.855-13.783,34.624
	c-6.504,7.706-17.673,14.171-27.143,15.721c-7.837,1.279-16.512,1.385-25.453,1.385l-3.759-0.003l-3.978-0.006H100.283
	c-14.704,0-30.088-6.267-38.321-15.637c-10.123-11.489-15.043-23.31-15.043-36.134V98.863c0-12.24,4.64-23.941,13.767-34.753
	c8.798-10.407,24.305-17.131,39.503-17.131h629.586c1.633,0,3.259-0.004,4.883-0.009C736.188,46.966,737.714,46.96,739.238,46.96
	 M739.238,2.11c-3.141,0-6.292,0.019-9.464,0.019H100.188c-28.208,0-56.39,12.488-73.752,33.023
	C10.822,53.648,2.068,75.274,2.068,98.863v654.176c0,24.612,9.584,46.877,26.24,65.783c17.067,19.423,45.062,30.837,71.975,30.837
	h630.379c2.598,0,5.175,0.009,7.736,0.009c10.954,0,21.648-0.169,32.68-1.971c20.869-3.413,41.284-15.768,54.188-31.057
	c15.57-18.431,24.106-39.775,24.36-63.269V99.949c0-44.077-31.793-89.238-81.532-96.294C758.415,2.28,748.877,2.11,739.238,2.11
	L739.238,2.11z"/>
<path fill="#535353" stroke="#535353" stroke-miterlimit="10" d="M78.549,793.387c-0.246,0-0.319,0-2.2-1.338l0.849-1.231
	c0.773,0.517,1.278,0.855,1.602,1.098c0.053,0.035,0.093,0.059,0.113,0.073l-0.006,0.009c0.499,0.394,0.459,0.525,0.357,0.858
	l-0.161,0.531H78.549z"/>
<path fill="#535353" stroke="#535353" stroke-miterlimit="10" d="M791.145,772.804l-1.369-0.599
	c0.329-0.782,0.547-1.296,0.709-1.632c0.029-0.07,0.05-0.12,0.059-0.146l0.012,0.006c0.264-0.512,0.385-0.512,0.694-0.512h0.407
	l0.221,0.342C792.122,770.644,792.122,770.644,791.145,772.804z"/>
<path fill="#535353" stroke="#535353" stroke-miterlimit="10" d="M633.299,317.418"/>
<g>
	<path fill="#535353" stroke="#535353" stroke-miterlimit="10" d="M215.301,515.573h263.985c11.041,0,20.262-9.875,20.262-21.7
		c0-11.841-9.221-21.713-20.262-21.713H215.301c-11.049,0-20.263,9.872-20.263,21.713
		C195.038,505.698,204.252,515.573,215.301,515.573L215.301,515.573z"/>
	<path fill="#535353" stroke="#535353" stroke-miterlimit="10" d="M560.633,585.214H214.041c-10.361,0-19.003,9.878-19.003,21.701
		c0,11.84,8.642,21.694,19.003,21.694h346.592c10.376,0,19.021-9.854,19.021-21.694
		C579.653,595.092,571.009,585.214,560.633,585.214L560.633,585.214z"/>
	<g>
		<path fill="#535353" stroke="#535353" stroke-miterlimit="10" d="M239.169,315.027c11.747,0,23.414-4.898,31.731-13.304
			c8.306-8.396,13.147-20.194,13.147-32.076c0-11.887-4.841-23.685-13.147-32.087c-8.317-8.4-19.984-13.278-31.731-13.278
			c-11.761,0-23.429,4.878-31.736,13.278c-8.306,8.402-13.135,20.2-13.135,32.087c0,11.882,4.83,23.681,13.135,32.076
			C215.74,310.129,227.408,315.027,239.169,315.027L239.169,315.027z"/>
		<path fill="#535353" stroke="#535353" stroke-miterlimit="10" d="M425.84,315.027c11.751,0,23.419-4.898,31.737-13.304
			c8.306-8.396,13.157-20.194,13.157-32.076c0-11.887-4.852-23.685-13.157-32.087c-8.317-8.4-19.985-13.278-31.737-13.278
			c-11.747,0-23.43,4.878-31.721,13.278c-8.317,8.402-13.157,20.2-13.157,32.087c0,11.882,4.84,23.681,13.157,32.076
			C402.411,310.129,414.093,315.027,425.84,315.027L425.84,315.027z"/>
		<path fill="#535353" stroke="#535353" stroke-miterlimit="10" d="M612.527,315.027c11.74,0,23.429-4.898,31.734-13.304
			c8.297-8.396,13.137-20.194,13.137-32.076c0-11.887-4.84-23.685-13.137-32.087c-8.306-8.4-19.994-13.278-31.734-13.278
			c-11.747,0-23.415,4.878-31.731,13.278c-8.307,8.402-13.148,20.2-13.148,32.087c0,11.882,4.842,23.681,13.148,32.076
			C589.112,310.129,600.78,315.027,612.527,315.027L612.527,315.027z"/>
	</g>
</g>
</svg>
