<?xml version="1.0" encoding="utf-8"?>
<!-- Generator: Adobe Illustrator 16.0.0, SVG Export Plug-In . SVG Version: 6.00 Build 0)  -->
<!DOCTYPE svg PUBLIC "-//W3C//DTD SVG 1.1//EN" "http://www.w3.org/Graphics/SVG/1.1/DTD/svg11.dtd">
<svg version="1.1" id="图层_1" xmlns="http://www.w3.org/2000/svg" xmlns:xlink="http://www.w3.org/1999/xlink" x="0px" y="0px"
	 width="850.391px" height="850.39px" viewBox="0 0 850.391 850.39" enable-background="new 0 0 850.391 850.39"
	 xml:space="preserve">
<path fill="#535353" d="M78.549,793.386c-0.245,0-0.318,0-2.199-1.338l0.849-1.23c0.773,0.518,1.278,0.855,1.602,1.098
	c0.054,0.035,0.094,0.059,0.113,0.074l-0.006,0.008c0.499,0.395,0.459,0.525,0.357,0.857l-0.161,0.531H78.549L78.549,793.386z"/>
<path fill="#535353" stroke="#535353" stroke-miterlimit="10" d="M791.145,772.804l-1.369-0.6c0.329-0.781,0.547-1.295,0.709-1.631
	c0.029-0.07,0.05-0.121,0.06-0.146l0.012,0.006c0.264-0.512,0.385-0.512,0.694-0.512h0.406l0.222,0.342
	C792.122,770.644,792.122,770.644,791.145,772.804z"/>
<path fill="#535353" d="M633.3,317.418"/>
<g>
	<g>
		<path fill="#535353" d="M617.177,242.982c0-119.372-80.871-200.459-191.334-200.459c-110.467,0-191.34,81.087-191.34,200.459
			c0,125.178,86.848,224.736,191.34,224.736C530.336,467.718,617.177,368.16,617.177,242.982L617.177,242.982z M659.703,242.982
			c0,147.056-104.133,267.259-233.859,267.259c-129.727,0-233.859-120.204-233.859-267.259
			c0-147.099,104.132-242.978,233.859-242.978C555.57,0.004,659.703,95.884,659.703,242.982L659.703,242.982z M425.951,552.761
			c407.551,0,403.467,255.625,403.467,255.625c3.082,23.195-13.436,42.012-36.971,42.012H59.43
			c-23.493,0-40.947-19.07-36.952-42.012C22.478,808.386,18.401,552.761,425.951,552.761L425.951,552.761z M65.003,807.878
			l0.063,3.846l-0.702,3.955c0.676-3.869-2.831-7.801-4.934-7.801h733.017c-2.145,0-5.484,3.807-5.188,6.121l-0.422-3.148
			l0.063-3.143c0-0.852-0.131-3.338-0.535-7.104c-0.857-7.762-2.277-15.445-4.248-23.002c-6.672-25.799-18.633-49.93-35.123-70.859
			c-53.744-68.818-155.09-111.463-321.043-111.463c-165.979,0-267.302,42.645-321.068,111.463
			c-16.49,20.93-28.45,45.061-35.122,70.859c-2.166,8.398-3.528,16.135-4.253,23.002C65.23,803.023,65.061,805.445,65.003,807.878
			L65.003,807.878z M65.003,807.878"/>
	</g>
</g>
</svg>
