<?xml version="1.0" encoding="utf-8"?>
<!-- Generator: Adobe Illustrator 16.0.0, SVG Export Plug-In . SVG Version: 6.00 Build 0)  -->
<!DOCTYPE svg PUBLIC "-//W3C//DTD SVG 1.1//EN" "http://www.w3.org/Graphics/SVG/1.1/DTD/svg11.dtd">
<svg version="1.1" id="图层_1" xmlns="http://www.w3.org/2000/svg" xmlns:xlink="http://www.w3.org/1999/xlink" x="0px" y="0px"
	 width="850.391px" height="850.39px" viewBox="0 0 850.391 850.39" enable-background="new 0 0 850.391 850.39"
	 xml:space="preserve">
<g>
	<g>
		<linearGradient id="SVGID_1_" gradientUnits="userSpaceOnUse" x1="425.845" y1="850.395" x2="425.8449" y2="0.0054">
			<stop  offset="0" style="stop-color:#F39700"/>
			<stop  offset="1" style="stop-color:#EC6941"/>
		</linearGradient>
		<path fill="url(#SVGID_1_)" d="M425.846,510.245c129.729,0,233.859-120.21,233.859-267.26c0-147.1-104.14-242.98-233.859-242.98
			c-129.73,0-233.86,95.88-233.86,242.98C191.986,390.035,296.115,510.245,425.846,510.245z M829.415,808.385
			c0,0,4.09-255.62-403.47-255.62c-407.54,0-403.47,255.62-403.47,255.62c-3.99,22.939,13.46,42.01,36.95,42.01h733.02
			C815.986,850.395,832.495,831.584,829.415,808.385z"/>
	</g>
</g>
</svg>
