<?xml version="1.0" encoding="utf-8"?>
<!-- Generator: Adobe Illustrator 16.0.0, SVG Export Plug-In . SVG Version: 6.00 Build 0)  -->
<!DOCTYPE svg PUBLIC "-//W3C//DTD SVG 1.1//EN" "http://www.w3.org/Graphics/SVG/1.1/DTD/svg11.dtd">
<svg version="1.1" id="图层_1" xmlns="http://www.w3.org/2000/svg" xmlns:xlink="http://www.w3.org/1999/xlink" x="0px" y="0px"
	 width="850.395px" height="850.394px" viewBox="0 0 850.395 850.394" enable-background="new 0 0 850.395 850.394"
	 xml:space="preserve">
<linearGradient id="SVGID_1_" gradientUnits="userSpaceOnUse" x1="405.0354" y1="811.9243" x2="405.0353" y2="-30.5142" gradientTransform="matrix(1 0 0 1 20.835 35.1592)">
	<stop  offset="0" style="stop-color:#009944"/>
	<stop  offset="1" style="stop-color:#80C269"/>
</linearGradient>
<path fill="url(#SVGID_1_)" d="M343.877,175.536c0,94.185-76.708,170.892-170.896,170.892C78.798,346.428,2.09,269.83,2.09,175.537
	C2.09,81.243,78.799,4.646,172.983,4.646C267.275,4.646,343.877,81.354,343.877,175.536z M678.76,505.304
	c-94.187,0-170.896,76.703-170.896,170.889c0,94.188,76.709,170.891,170.896,170.891c94.293,0,170.891-76.703,170.891-170.891
	C849.651,582.007,773.052,505.304,678.76,505.304z M665.272,373.371c8.31,0,16.616-3.129,22.874-9.493l152.012-152.012
	c6.042-6.042,9.492-14.349,9.492-22.873c0-8.521-3.451-16.829-9.492-22.87L688.147,14.11c-12.637-12.621-33.106-12.621-45.743,0
	L490.392,166.124c-12.621,12.636-12.621,33.107,0,45.743l152.012,152.013C648.766,370.136,657.076,373.371,665.272,373.371z
	 M308.225,521.902L70.13,520.746c-19.779-0.084-35.89,15.871-35.997,35.65l-1.153,238.096c-0.084,19.779,15.87,35.891,35.649,35.996
	l238.097,1.154c9.885-0.033,18.943-3.965,25.394-10.354c6.538-6.477,10.639-15.41,10.604-25.297l1.154-238.094
	c0.045-9.463-3.713-18.689-10.355-25.398C326.879,525.794,317.689,521.947,308.225,521.902z"/>
</svg>
